<?xml version="1.0" standalone="no"?>
<!DOCTYPE svg PUBLIC "-//W3C//DTD SVG 20010904//EN"
 "http://www.w3.org/TR/2001/REC-SVG-20010904/DTD/svg10.dtd">
<svg version="1.0" xmlns="http://www.w3.org/2000/svg"
 width="600.000000pt" height="400.000000pt" viewBox="0 0 600.000000 400.000000"
 preserveAspectRatio="xMidYMid meet">
<g transform="translate(0.000000,400.000000) scale(0.100000,-0.100000)"
fill="#000000" stroke="none">
<path d="M2204 3082 c-8 -5 -5 -34 11 -102 12 -52 58 -249 101 -437 l78 -343
73 0 c71 0 73 1 68 23 -3 12 -36 164 -75 337 -67 303 -107 475 -117 513 -3 14
-16 17 -66 17 -34 0 -67 -4 -73 -8z"/>
<path d="M3193 3073 c-3 -10 -12 -34 -20 -53 l-15 -35 -18 45 -18 45 -103 3
-104 3 -178 -425 c-97 -234 -180 -432 -183 -441 -6 -14 4 -15 80 -13 l87 3
145 349 c79 193 148 354 152 358 10 10 52 -83 52 -112 0 -10 -56 -147 -124
-306 l-123 -289 85 -3 c62 -2 88 1 93 10 5 7 41 93 81 191 40 97 75 177 78
177 3 0 41 -84 85 -186 43 -102 84 -188 90 -191 7 -2 46 -3 88 -1 l76 3 -129
295 -130 295 27 67 c14 38 28 66 31 63 4 -4 110 -245 275 -627 l42 -98 83 0
c45 0 82 3 82 6 0 3 -57 135 -126 293 -69 157 -153 349 -187 426 -33 77 -65
146 -70 153 -6 8 -40 12 -104 12 -80 0 -95 -3 -100 -17z"/>
</g>
</svg>
